<svg width="12" height="8" viewBox="0 0 12 8" fill="none" xmlns="http://www.w3.org/2000/svg">
<path d="M4.90085 1.11861L0.132718 6.33653C0.0463007 6.42943 -0.00122775 6.55233 2.41226e-05 6.67964C0.00117878 6.81282 0.0542083 6.94022 0.147692 7.0344C0.241177 7.12858 0.367636 7.182 0.499838 7.18316C0.571693 7.18617 0.643336 7.17337 0.709789 7.14567C0.776242 7.11797 0.835911 7.07603 0.88465 7.02275L5.63509 1.80037C5.68218 1.74981 5.73904 1.70949 5.80218 1.6819C5.86532 1.65432 5.93339 1.64004 6.00221 1.63996C6.0717 1.63996 6.14046 1.65418 6.20432 1.68175C6.26819 1.70932 6.32583 1.74968 6.37375 1.80037L11.1375 7.02275C11.1844 7.07237 11.2406 7.1121 11.3028 7.13964C11.3651 7.16718 11.4322 7.18197 11.5002 7.18316C11.6324 7.182 11.7588 7.12858 11.8523 7.0344C11.9458 6.94022 11.9988 6.81282 12 6.67964C12.0012 6.55233 11.9537 6.42944 11.8673 6.33653L7.10799 1.11861C6.96716 0.964685 6.79619 0.841833 6.60587 0.757803C6.41555 0.673774 6.21001 0.630391 6.00221 0.630391C5.79442 0.630391 5.58887 0.673774 5.39855 0.757803C5.20823 0.841833 5.03726 0.964685 4.89643 1.11861" fill="#4A4F54"/>
</svg>
