<?xml version="1.0" encoding="utf-8"?><svg xmlns="http://www.w3.org/2000/svg" xmlns:xlink="http://www.w3.org/1999/xlink"><symbol viewBox="0 0 50 50" id="ico_advantages_1" xmlns="http://www.w3.org/2000/svg"><g clip-path="url(#aa)" fill-rule="evenodd" clip-rule="evenodd"><path d="M24.571 23.429c5.365 0 9.715-4.35 9.715-9.715S29.936 4 24.57 4s-9.714 4.35-9.714 9.714c0 5.365 4.35 9.715 9.714 9.715zm0 4c7.575 0 13.715-6.14 13.715-13.715C38.286 6.14 32.146 0 24.57 0c-7.574 0-13.714 6.14-13.714 13.714 0 7.574 6.14 13.715 13.714 13.715z"/><path d="M24.571 28.286C14.415 28.286 6 37.009 6 48a2 2 0 11-4 0c0-12.994 10.005-23.714 22.571-23.714 12.567 0 22.572 10.72 22.572 23.714a2 2 0 01-4 0c0-10.991-8.415-19.714-18.572-19.714z"/></g><defs><clipPath id="aa"><path d="M0 0h50v50H0z"/></clipPath></defs></symbol><symbol viewBox="0 0 50 50" id="ico_advantages_2" xmlns="http://www.w3.org/2000/svg"><path d="M43.752 46.032a2.07 2.07 0 01-1.477-.607l-6.517-6.48a2.08 2.08 0 011.477-3.557c.554 0 1.085.22 1.477.61l6.498 6.352a1.971 1.971 0 01.61 1.455 2.058 2.058 0 01-1.236 2.056 2.07 2.07 0 01-.832.172zm4.412-6.48l-6.498-6.481a6.263 6.263 0 00-6.804-1.342 6.254 6.254 0 00-2.803 2.288 6.23 6.23 0 00-1.063 3.454 6.1 6.1 0 001.846 4.4l6.498 6.481a6.267 6.267 0 008.661-.18 6.233 6.233 0 00.181-8.639"/><path d="M7.717 45.093a1.994 1.994 0 01-1.459.608 2.074 2.074 0 01-1.927-1.269 2.058 2.058 0 01-.159-.793 2.002 2.002 0 01.61-1.473L23.74 23.239c.42.557.877 1.086 1.367 1.583.493.494 1.024.95 1.587 1.363L7.717 45.093zm20.306-37.89a10.42 10.42 0 018.898-2.946L32.51 8.674a6.215 6.215 0 00.019 8.783 6.248 6.248 0 008.806.018l4.43-4.4a10.358 10.358 0 01-.593 5.187 10.384 10.384 0 01-3.048 4.244 10.437 10.437 0 01-14.348-.965 10.357 10.357 0 01.305-14.34h-.057zm17.741 17.62a14.502 14.502 0 003.506-5.696c.708-2.145.905-4.425.574-6.659l-.59-4.087a2.005 2.005 0 00-.592-1.179 2.069 2.069 0 00-2.935 0l-7.384 7.365a2.091 2.091 0 01-3.566-1.473c0-.552.22-1.082.612-1.473l7.384-7.365a2.061 2.061 0 000-2.927 2.014 2.014 0 00-1.163-.59L37.494.152a14.602 14.602 0 00-7.455.87 14.563 14.563 0 00-6.031 4.456 14.492 14.492 0 00-2.187 14.3L1.845 39.22a6.232 6.232 0 00.181 8.639 6.267 6.267 0 008.662.18l19.476-19.921a14.657 14.657 0 008.27.648 14.632 14.632 0 007.292-3.944"/><path d="M15.193 18.102a2.069 2.069 0 003.545-1.528 2.018 2.018 0 00-.61-1.473L3.563.611A2.144 2.144 0 002.086.004 2.08 2.08 0 000 2.084c.005.551.223 1.079.61 1.473l14.583 14.545z"/></symbol><symbol viewBox="0 0 50 50" id="ico_advantages_3" xmlns="http://www.w3.org/2000/svg"><path fill-rule="evenodd" clip-rule="evenodd" d="M11.25 18.5a7.25 7.25 0 100-14.5 7.25 7.25 0 000 14.5zm0 4c6.213 0 11.25-5.037 11.25-11.25S17.463 0 11.25 0 0 5.037 0 11.25 5.037 22.5 11.25 22.5zM38.75 46a7.25 7.25 0 100-14.5 7.25 7.25 0 000 14.5zm0 4C44.963 50 50 44.963 50 38.75S44.963 27.5 38.75 27.5 27.5 32.537 27.5 38.75 32.537 50 38.75 50zM48.914 1.086a2 2 0 010 2.828L4.54 48.29a2 2 0 11-2.828-2.828L46.086 1.086a2 2 0 012.828 0z"/></symbol><symbol viewBox="0 0 50 50" id="ico_advantages_4" xmlns="http://www.w3.org/2000/svg"><path d="M47.917 8.324H41.67V2.081A2.08 2.08 0 0039.587 0a2.083 2.083 0 00-2.082 2.081v6.243H31.33a2.083 2.083 0 00-2.083 2.081 2.08 2.08 0 002.083 2.081h6.247v6.243a2.08 2.08 0 002.083 2.081 2.084 2.084 0 002.082-2.08v-6.244h6.174A2.083 2.083 0 0050 10.406a2.08 2.08 0 00-2.083-2.082zm-8.33 16.666a2.065 2.065 0 00-2.082 2.082v4.236a4.16 4.16 0 01-4.166 4.162H8.33a4.167 4.167 0 01-4.165-4.162V30.7l2.12-14.641a4.18 4.18 0 014.128-3.573h12.495a2.083 2.083 0 002.083-2.08 2.08 2.08 0 00-2.083-2.082H10.413a8.334 8.334 0 00-5.452 2.038 8.322 8.322 0 00-2.786 5.108L.092 30.037c-.062.42-.093.845-.092 1.27a8.246 8.246 0 004.165 7.165v7.366A4.16 4.16 0 008.33 50a4.167 4.167 0 004.165-4.162v-6.28h18.836v6.243a4.16 4.16 0 004.165 4.162 4.167 4.167 0 004.165-4.162v-9.116a8.302 8.302 0 002.082-5.525v-4.088a2.08 2.08 0 00-2.082-2.081"/></symbol><symbol viewBox="0 0 16 19" id="ico_map_1" xmlns="http://www.w3.org/2000/svg"><path d="M7.996 4.723c-.476 0-.941.14-1.337.4s-.704.63-.886 1.064a2.33 2.33 0 00-.136 1.37c.094.46.324.881.66 1.212a2.441 2.441 0 002.624.509c.44-.18.816-.485 1.08-.875a2.343 2.343 0 00-.304-2.99 2.402 2.402 0 00-1.7-.69z"/><path d="M10.876 11.843l-2.463 1.463a.823.823 0 01-.828 0l-2.47-1.463a5.542 5.542 0 01-2.323-2.684 5.437 5.437 0 01-.198-3.52 5.515 5.515 0 012.008-2.92 5.662 5.662 0 013.394-1.127c1.226 0 2.418.396 3.393 1.127a5.515 5.515 0 012.008 2.92 5.437 5.437 0 01-.198 3.52 5.542 5.542 0 01-2.323 2.684zM7.996 0a7.274 7.274 0 00-4.214 1.338 7.093 7.093 0 00-2.62 3.512 6.98 6.98 0 00-.037 4.358 7.088 7.088 0 002.561 3.555l1.91 1.393a3.97 3.97 0 011.165 1.403c.272.55.412 1.155.407 1.767v.787a.78.78 0 00.234.556.806.806 0 001.13 0 .78.78 0 00.235-.556v-.787a3.914 3.914 0 01.426-1.764 3.98 3.98 0 011.18-1.392l1.91-1.393a7.09 7.09 0 002.575-3.552 6.98 6.98 0 00-.027-4.363 7.093 7.093 0 00-2.618-3.52A7.273 7.273 0 007.996 0z"/></symbol><symbol viewBox="0 0 16 16" id="ico_map_2" xmlns="http://www.w3.org/2000/svg"><path d="M8.2 1C4.23 1 1 4.23 1 8.2s3.23 7.2 7.2 7.2 7.2-3.23 7.2-7.2S12.17 1 8.2 1zm0 12.868A5.675 5.675 0 012.532 8.2 5.674 5.674 0 018.2 2.532 5.674 5.674 0 0113.868 8.2 5.674 5.674 0 018.2 13.868z"/><path d="M11.752 7.777H8.517v-3.89a.593.593 0 00-1.186 0V8.37c0 .328.265.593.593.593h3.828a.593.593 0 000-1.186z"/></symbol><symbol viewBox="0 0 18 20" id="ico_map_3" xmlns="http://www.w3.org/2000/svg"><path d="M15.558 7.022l-2.23 1.475a.372.372 0 01-.133.06h-.132a.438.438 0 01-.318-.132l-.893-.911a1.457 1.457 0 00-2.022 0L6.502 10.83a1.398 1.398 0 00-.307 1.555c.074.175.182.334.319.467l.923.893a.44.44 0 01.132.312v.102a.444.444 0 01-.066.168l-1.475 2.225a.456.456 0 01-.558.156l-1.92-.93a2.292 2.292 0 01-.6-3.724l8.548-8.17a2.297 2.297 0 013.796 1.057l.438 1.607a.331.331 0 010 .108.431.431 0 01-.192.366h.018zm1.464-.834l-.438-1.601a3.647 3.647 0 00-6.034-1.68l-8.523 8.17a3.647 3.647 0 00.936 5.919l1.92.93a1.799 1.799 0 002.266-.624l1.488-2.207a1.8 1.8 0 00.294-.99v-.204a1.8 1.8 0 00-.528-1.091l-.924-.894-.468.486.468-.6 3.329-3.329h.096l.9.924c.288.298.673.485 1.085.528h.222c.353 0 .697-.104.99-.3l2.231-1.482a1.8 1.8 0 00.762-1.487 1.76 1.76 0 00-.06-.468"/></symbol><symbol viewBox="0 0 12 8" id="ico_top" xmlns="http://www.w3.org/2000/svg"><path d="M4.9 1.119L.134 6.337A.497.497 0 000 6.68a.51.51 0 00.885.343L5.635 1.8a.504.504 0 01.739 0l4.763 5.223a.514.514 0 00.363.16.502.502 0 00.5-.503.497.497 0 00-.133-.343L7.108 1.119A1.504 1.504 0 006.002.63a1.494 1.494 0 00-1.106.489"/></symbol></svg>